<svg width="36" height="25" viewBox="0 0 36 25" fill="none" xmlns="http://www.w3.org/2000/svg">
<path d="M35.1187 20.2021C33.5572 17.6445 31.7297 15.2735 29.6694 13.132C29.632 13.0833 29.6115 13.0228 29.6115 12.9604C29.6115 12.898 29.632 12.8375 29.6694 12.7888C31.4424 10.271 33.0092 7.60296 34.3535 4.81266C34.5479 4.41338 34.6404 3.96876 34.6219 3.52156C34.6034 3.07435 34.4746 2.63963 34.2479 2.2592C34.0411 1.87253 33.7389 1.55033 33.3724 1.32588C33.0059 1.10143 32.5884 0.982871 32.1632 0.982461L28.2048 0.982461C27.7025 0.992601 27.2135 1.15172 26.7951 1.44111C26.3767 1.73051 26.0464 2.13815 25.843 2.61613C24.6933 5.2618 23.3154 7.7936 21.7264 10.1804L21.7264 3.45356C21.7281 3.12854 21.6679 2.80639 21.5492 2.50576C21.4304 2.20513 21.2555 1.932 21.0347 1.70217C20.8138 1.47234 20.5513 1.29039 20.2623 1.16685C19.9734 1.04331 19.6638 0.98064 19.3514 0.982461L13.5722 0.982461C13.2358 0.987903 12.9072 1.08885 12.6218 1.27441C12.3365 1.45997 12.1053 1.72309 11.9532 2.03537C11.8011 2.34765 11.7339 2.69722 11.7588 3.04635C11.7837 3.39548 11.8997 3.73091 12.0944 4.01642L12.6222 4.78521C12.9053 5.20822 13.0572 5.71122 13.0576 6.22668L13.0576 11.4984C11.3159 8.81741 9.93108 5.90341 8.94096 2.83578C8.76242 2.29522 8.42619 1.82612 7.97915 1.49389C7.53212 1.16166 6.99658 0.982869 6.44721 0.98246L3.21458 0.98246C2.8711 0.986734 2.53298 1.07161 2.22542 1.23075C1.91786 1.3899 1.64878 1.61922 1.43825 1.90161C1.22771 2.18401 1.08115 2.5122 1.00947 2.86173C0.937799 3.21126 0.942867 3.57311 1.0243 3.92032C2.80555 11.7867 6.53958 18.3076 11.2764 21.7671C11.5603 21.977 11.9124 22.0615 12.2559 22.0024C12.5995 21.9432 12.9066 21.7452 13.1104 21.4514C13.2123 21.3047 13.2853 21.1384 13.3253 20.9622C13.3652 20.786 13.3712 20.6033 13.343 20.4247C13.3148 20.2461 13.2529 20.075 13.1609 19.9214C13.0689 19.7677 12.9486 19.6345 12.8069 19.5294C8.66388 16.5092 5.36527 10.757 3.68958 3.72813L6.46041 3.72813C7.67461 7.56642 9.50361 11.1636 11.8701 14.3676C12.1436 14.7312 12.5203 14.9959 12.9467 15.124C13.3731 15.2522 13.8274 15.2373 14.2451 15.0814C14.6738 14.926 15.0445 14.6342 15.305 14.2474C15.5655 13.8606 15.7024 13.3984 15.6965 12.9261L15.6965 6.22668C15.6993 5.35398 15.4906 4.49463 15.0896 3.72813L19.0479 3.72813L19.0479 11.1826C19.0432 11.716 19.2073 12.2362 19.5149 12.6629C19.8225 13.0897 20.2565 13.3992 20.75 13.5439C21.2288 13.7097 21.7467 13.7067 22.2237 13.5355C22.7007 13.3643 23.1102 13.0343 23.3889 12.5966C25.263 9.81472 26.8632 6.84358 28.1653 3.72813L31.8597 3.72813C30.6021 6.30091 29.1506 8.76599 27.5187 11.1002C27.1073 11.673 26.9075 12.3806 26.956 13.0939C27.0044 13.8072 27.2978 14.4785 27.7826 14.9854C29.7071 17.0031 31.4392 19.2099 32.9548 21.5749L28.5347 21.5749C27.1711 19.2264 25.34 17.2089 23.1646 15.658C22.8382 15.4092 22.4513 15.2606 22.0478 15.229C21.6443 15.1975 21.2404 15.2843 20.8819 15.4796C20.5133 15.6758 20.2046 15.975 19.9902 16.3436C19.7758 16.7121 19.6642 17.1355 19.668 17.5663L19.668 20.8336C19.6753 21.0244 19.6101 21.2104 19.4867 21.3516C19.3633 21.4929 19.1915 21.578 19.0083 21.5887L17.8736 21.5887C17.5237 21.5887 17.1881 21.7333 16.9406 21.9908C16.6932 22.2482 16.5542 22.5974 16.5542 22.9615C16.5542 23.3256 16.6932 23.6748 16.9406 23.9322C17.1881 24.1897 17.5237 24.3343 17.8736 24.3343L19.0083 24.3343C19.4461 24.3308 19.8789 24.2373 20.2818 24.0592C20.6848 23.8812 21.05 23.6221 21.3565 23.2968C21.6629 22.9716 21.9047 22.5865 22.0678 22.1638C22.2309 21.7411 22.3122 21.2891 22.3069 20.8336L22.3069 18.4037C23.8941 19.6459 25.2378 21.1931 26.2653 22.9615C26.4921 23.3705 26.8165 23.7118 27.2071 23.9523C27.5977 24.1928 28.0414 24.3243 28.4951 24.3343L32.9548 24.3343C33.4109 24.3355 33.8588 24.2086 34.2512 23.967C34.6437 23.7253 34.9662 23.378 35.1847 22.9615C35.4088 22.5365 35.5208 22.0572 35.5092 21.5726C35.4976 21.0879 35.3629 20.615 35.1187 20.2021Z" fill="#3797C3"/>
</svg>
