<svg width="16" height="32" viewBox="0 0 16 32" fill="none" xmlns="http://www.w3.org/2000/svg">
<path d="M14.8609 11.1428C14.8725 11.0251 14.7801 10.9232 14.6618 10.9232H10.3876V7.85583C10.3876 6.7039 11.1213 6.43534 11.6382 6.43534C12.0679 6.43534 13.9849 6.43534 14.6114 6.43534C14.7219 6.43534 14.8102 6.3458 14.8102 6.23534V1.57045C14.8102 1.46031 14.7212 1.37089 14.611 1.37045L10.4417 1.35352C5.59214 1.35352 4.48854 5.13048 4.48854 7.54751V10.9232H1.88396C1.7735 10.9232 1.68396 11.0127 1.68396 11.1232V15.9414C1.68396 16.0519 1.7735 16.1414 1.88396 16.1414H4.48854C4.48854 22.2197 4.48854 29.4283 4.48854 30.7082C4.48854 30.8186 4.57808 30.9073 4.68854 30.9073H10.1876C10.298 30.9073 10.3876 30.819 10.3876 30.7085C10.3876 29.4231 10.3876 22.1509 10.3876 16.1414H14.1868C14.2897 16.1414 14.3758 16.0634 14.3859 15.961L14.8609 11.1428Z" stroke="#3797C3" stroke-width="2"/>
</svg>
