<svg width="31" height="32" viewBox="0 0 31 32" fill="none" xmlns="http://www.w3.org/2000/svg">
<path d="M15.6635 0.181152C11.5435 0.181152 11.0269 0.199322 9.40878 0.276138C7.79408 0.352828 6.69129 0.619614 5.72629 1.00983C4.72871 1.41321 3.88269 1.95292 3.03933 2.83041C2.19597 3.70789 1.67724 4.58814 1.28956 5.62608C0.914514 6.63007 0.658103 7.77748 0.584395 9.45752C0.510567 11.1411 0.493164 11.6786 0.493164 15.9653C0.493164 20.252 0.510567 20.7895 0.584395 22.4731C0.658103 24.1531 0.914514 25.3005 1.28956 26.3045C1.67724 27.3425 2.19597 28.2227 3.03933 29.1003C3.88269 29.9777 4.72871 30.5175 5.72629 30.9208C6.69129 31.311 7.79408 31.5778 9.40878 31.6545C11.0269 31.7313 11.5435 31.7494 15.6635 31.7494C19.7835 31.7494 20.3001 31.7313 21.9182 31.6545C23.5329 31.5778 24.6357 31.311 25.6006 30.9208C26.5982 30.5175 27.4442 29.9777 28.2876 29.1003C29.131 28.2227 29.6497 27.3425 30.0374 26.3045C30.4124 25.3005 30.6689 24.1531 30.7425 22.4731C30.8163 20.7895 30.8338 20.252 30.8338 15.9653C30.8338 11.6786 30.8163 11.1411 30.7425 9.45752C30.6689 7.77748 30.4124 6.63007 30.0374 5.62608C29.6497 4.58814 29.131 3.70789 28.2876 2.83041C27.4442 1.95292 26.5982 1.41321 25.6006 1.00983C24.6357 0.619614 23.5329 0.352828 21.9182 0.276138C20.3001 0.199322 19.7835 0.181152 15.6635 0.181152ZM15.6635 3.0252C19.7141 3.0252 20.1939 3.04124 21.7936 3.11718C23.2727 3.18741 24.0759 3.44455 24.6105 3.66065C25.3186 3.94698 25.824 4.28908 26.3548 4.84139C26.8857 5.3937 27.2144 5.91956 27.4896 6.65626C27.6974 7.21245 27.9445 8.04821 28.012 9.58715C28.0849 11.2515 28.1004 11.7508 28.1004 15.9653C28.1004 20.1798 28.0849 20.6791 28.012 22.3435C27.9445 23.8824 27.6974 24.7181 27.4896 25.2743C27.2144 26.0111 26.8857 26.5369 26.3548 27.0892C25.824 27.6416 25.3186 27.9836 24.6105 28.2699C24.0759 28.4861 23.2727 28.7432 21.7936 28.8134C20.1942 28.8894 19.7144 28.9055 15.6635 28.9055C11.6125 28.9055 11.1328 28.8894 9.53337 28.8134C8.05428 28.7432 7.25102 28.4861 6.71646 28.2699C6.00835 27.9836 5.503 27.6416 4.97211 27.0892C4.44128 26.5369 4.11249 26.0111 3.83735 25.2743C3.62959 24.7181 3.38246 23.8824 3.31495 22.3435C3.24197 20.6791 3.22655 20.1798 3.22655 15.9653C3.22655 11.7508 3.24197 11.2515 3.31495 9.58715C3.38246 8.04821 3.62959 7.21245 3.83735 6.65626C4.11249 5.91956 4.44128 5.3937 4.97211 4.84139C5.503 4.28908 6.00835 3.94698 6.71646 3.66065C7.25102 3.44455 8.05428 3.18741 9.53337 3.11718C11.133 3.04124 11.6128 3.0252 15.6635 3.0252Z" fill="#3797C3"/>
<path d="M15.6619 21.2266C12.8691 21.2266 10.6051 18.871 10.6051 15.9653C10.6051 13.0594 12.8691 10.7038 15.6619 10.7038C18.4547 10.7038 20.7186 13.0594 20.7186 15.9653C20.7186 18.871 18.4547 21.2266 15.6619 21.2266ZM15.6619 7.85986C11.3594 7.85986 7.8717 11.4887 7.8717 15.9653C7.8717 20.4417 11.3594 24.0706 15.6619 24.0706C19.9643 24.0706 23.452 20.4417 23.452 15.9653C23.452 11.4887 19.9643 7.85986 15.6619 7.85986Z" fill="#3797C3"/>
<path d="M25.5836 7.53958C25.5836 8.58567 24.7686 9.43365 23.7632 9.43365C22.7578 9.43365 21.9427 8.58567 21.9427 7.53958C21.9427 6.49348 22.7578 5.64551 23.7632 5.64551C24.7686 5.64551 25.5836 6.49348 25.5836 7.53958Z" fill="#3797C3"/>
</svg>
