<svg width="49" height="51" viewBox="0 0 49 51" fill="none" xmlns="http://www.w3.org/2000/svg">
<path d="M34.5477 19.8946C34.5593 19.777 34.4668 19.675 34.3486 19.675H28.1303V15.2811C28.1303 13.6309 29.1814 13.2462 29.9217 13.2462C30.5588 13.2462 33.4772 13.2462 34.2677 13.2462C34.3782 13.2462 34.4657 13.1567 34.4657 13.0462V6.19109C34.4657 6.08096 34.3767 5.99154 34.2665 5.9911L28.2078 5.96649C21.2608 5.96649 19.6799 11.377 19.6799 14.8394V19.675H15.8624C15.7519 19.675 15.6624 19.7646 15.6624 19.875V26.9502C15.6624 27.0606 15.7519 27.1502 15.8624 27.1502H19.6799C19.6799 36.0179 19.6799 46.5651 19.6799 48.1098C19.6799 48.2202 19.7695 48.3023 19.8799 48.3023H27.9303C28.0407 48.3023 28.1303 48.2202 28.1303 48.1098C28.1303 46.5574 28.1303 35.916 28.1303 27.1502H33.6511C33.754 27.1502 33.84 27.0721 33.8501 26.9698L34.5477 19.8946Z" stroke="#FFEF9C" stroke-width="2"/>
</svg>
