<svg width="45" height="47" viewBox="0 0 45 47" fill="none" xmlns="http://www.w3.org/2000/svg">
<path d="M22.4955 0.854553C16.5935 0.854553 15.8535 0.880582 13.5356 0.99062C11.2225 1.10048 9.6428 1.48265 8.26043 2.04164C6.83139 2.61947 5.61948 3.39261 4.41136 4.64961C3.20324 5.90661 2.46017 7.16756 1.90481 8.65442C1.36756 10.0926 1.00025 11.7363 0.894666 14.1429C0.788907 16.5546 0.763977 17.3246 0.763977 23.4654C0.763977 29.6061 0.788907 30.3761 0.894666 32.7878C1.00025 35.1944 1.36756 36.8381 1.90481 38.2763C2.46017 39.7631 3.20324 41.0241 4.41136 42.2812C5.61948 43.5382 6.83139 44.3113 8.26043 44.8892C9.6428 45.448 11.2225 45.8303 13.5356 45.9401C15.8535 46.0501 16.5935 46.0761 22.4955 46.0761C28.3974 46.0761 29.1374 46.0501 31.4553 45.9401C33.7684 45.8303 35.3481 45.448 36.7304 44.8892C38.1595 44.3113 39.3714 43.5382 40.5796 42.2812C41.7877 41.0241 42.5308 39.7631 43.0861 38.2763C43.6233 36.8381 43.9907 35.1944 44.0962 32.7878C44.2019 30.3761 44.227 29.6061 44.227 23.4654C44.227 17.3246 44.2019 16.5546 44.0962 14.1429C43.9907 11.7363 43.6233 10.0926 43.0861 8.65442C42.5308 7.16756 41.7877 5.90661 40.5796 4.64961C39.3714 3.39261 38.1595 2.61947 36.7304 2.04164C35.3481 1.48265 33.7684 1.10048 31.4553 0.99062C29.1374 0.880582 28.3974 0.854553 22.4955 0.854553ZM22.4955 4.92865C28.298 4.92865 28.9854 4.95163 31.2769 5.06041C33.3957 5.16103 34.5463 5.52937 35.3121 5.83893C36.3264 6.24911 37.0504 6.73916 37.8108 7.53034C38.5713 8.32152 39.0422 9.07483 39.4364 10.1301C39.734 10.9269 40.088 12.1241 40.1847 14.3286C40.2892 16.7129 40.3114 17.428 40.3114 23.4654C40.3114 29.5027 40.2892 30.2178 40.1847 32.6021C40.088 34.8066 39.734 36.0038 39.4364 36.8005C39.0422 37.856 38.5713 38.6092 37.8108 39.4004C37.0504 40.1916 36.3264 40.6816 35.3121 41.0918C34.5463 41.4014 33.3957 41.7698 31.2769 41.8703C28.9857 41.9791 28.2984 42.0021 22.4955 42.0021C16.6925 42.0021 16.0053 41.9791 13.7141 41.8703C11.5953 41.7698 10.4446 41.4014 9.67886 41.0918C8.66449 40.6816 7.94056 40.1916 7.18007 39.4004C6.41966 38.6092 5.94866 37.856 5.55452 36.8005C5.25691 36.0038 4.90289 34.8066 4.80619 32.6021C4.70164 30.2178 4.67955 29.5027 4.67955 23.4654C4.67955 17.428 4.70164 16.7129 4.80619 14.3286C4.90289 12.1241 5.25691 10.9269 5.55452 10.1301C5.94866 9.07483 6.41966 8.32152 7.18007 7.53034C7.94056 6.73916 8.66449 6.24911 9.67886 5.83893C10.4446 5.52937 11.5953 5.16103 13.7141 5.06041C16.0056 4.95163 16.6929 4.92865 22.4955 4.92865Z" fill="#FFEF9C"/>
<path d="M22.4932 31.0022C18.4925 31.0022 15.2493 27.6278 15.2493 23.4653C15.2493 19.3027 18.4925 15.9283 22.4932 15.9283C26.4938 15.9283 29.737 19.3027 29.737 23.4653C29.737 27.6278 26.4938 31.0022 22.4932 31.0022ZM22.4932 11.8543C16.3299 11.8543 11.3337 17.0527 11.3337 23.4653C11.3337 29.8778 16.3299 35.0762 22.4932 35.0762C28.6564 35.0762 33.6525 29.8778 33.6525 23.4653C33.6525 17.0527 28.6564 11.8543 22.4932 11.8543Z" fill="#FFEF9C"/>
<path d="M36.7061 11.3957C36.7061 12.8942 35.5385 14.109 34.0983 14.109C32.6581 14.109 31.4905 12.8942 31.4905 11.3957C31.4905 9.89719 32.6581 8.68246 34.0983 8.68246C35.5385 8.68246 36.7061 9.89719 36.7061 11.3957Z" fill="#FFEF9C"/>
</svg>
