<svg width="22" height="22" viewBox="0 0 22 22" fill="none" xmlns="http://www.w3.org/2000/svg">
<g clip-path="url(#clip0_123_743)">
<path d="M19.2523 5.4623C19.2134 5.40808 19.1646 5.36237 19.1088 5.32776C19.0529 5.29316 18.9911 5.27034 18.9267 5.26062C18.8624 5.2509 18.7969 5.25446 18.7339 5.2711C18.6709 5.28775 18.6116 5.31715 18.5595 5.35762L10.5786 11.556C10.55 11.5782 10.5153 11.5903 10.4796 11.5903C10.4439 11.5903 10.4092 11.5782 10.3806 11.556L2.55633 5.33016C2.50468 5.28915 2.44576 5.25912 2.38295 5.2418C2.32014 5.22447 2.25467 5.22019 2.19027 5.22919C2.12587 5.2382 2.0638 5.26031 2.00762 5.29427C1.95143 5.32823 1.90222 5.37337 1.8628 5.42712C1.82338 5.48087 1.79452 5.54217 1.77787 5.60752C1.76122 5.67287 1.75711 5.74099 1.76576 5.808C1.77441 5.875 1.79567 5.93958 1.8283 5.99804C1.86094 6.0565 1.90433 6.1077 1.95599 6.14872L8.1079 11.0446L2.02361 15.8152C1.97119 15.8558 1.92699 15.9069 1.89353 15.9653C1.86006 16.0238 1.83799 16.0885 1.82857 16.1558C1.81916 16.2232 1.82257 16.2917 1.83863 16.3577C1.85469 16.4236 1.88308 16.4857 1.92218 16.5402C1.96127 16.5947 2.01031 16.6407 2.06648 16.6755C2.12266 16.7104 2.18488 16.7333 2.24959 16.7431C2.31429 16.7529 2.38022 16.7494 2.44361 16.7327C2.50699 16.7159 2.56659 16.6864 2.61901 16.6457L8.9243 11.6932L9.77864 12.3797C9.97785 12.5383 10.2213 12.6251 10.4722 12.627C10.723 12.6289 10.9676 12.5456 11.169 12.39L12.0662 11.6932L18.4457 16.6457C18.4978 16.6862 18.5571 16.7156 18.6201 16.7322C18.6831 16.7488 18.7486 16.7524 18.8129 16.7427C18.8773 16.7329 18.9391 16.7101 18.995 16.6755C19.0508 16.641 19.0996 16.5953 19.1385 16.5411C19.1773 16.4869 19.2056 16.4252 19.2216 16.3597C19.2375 16.2941 19.241 16.2259 19.2316 16.159C19.2223 16.0921 19.2003 16.0277 19.1671 15.9696C19.1339 15.9115 19.0899 15.8608 19.0378 15.8203L12.8925 11.0429L19.1516 6.17789C19.2555 6.09632 19.3242 5.9755 19.3431 5.84157C19.3619 5.70764 19.3293 5.57139 19.2523 5.4623Z" fill="#282828"/>
<path d="M18.6372 3.26025H2.47396C1.81782 3.26025 1.18856 3.53145 0.724606 4.01418C0.260648 4.49691 0 5.15163 0 5.83431L0 16.1306C0 16.8132 0.260648 17.468 0.724606 17.9507C1.18856 18.4334 1.81782 18.7046 2.47396 18.7046H18.6372C19.2933 18.7046 19.9225 18.4334 20.3865 17.9507C20.8505 17.468 21.1111 16.8132 21.1111 16.1306V5.83431C21.1111 5.15163 20.8505 4.49691 20.3865 4.01418C19.9225 3.53145 19.2933 3.26025 18.6372 3.26025ZM20.1215 16.1306C20.1215 16.5402 19.9651 16.933 19.6868 17.2226C19.4084 17.5123 19.0308 17.675 18.6372 17.675H2.47396C2.08028 17.675 1.70272 17.5123 1.42435 17.2226C1.14597 16.933 0.989583 16.5402 0.989583 16.1306V5.83431C0.989583 5.4247 1.14597 5.03187 1.42435 4.74223C1.70272 4.4526 2.08028 4.28988 2.47396 4.28988H18.6372C19.0308 4.28988 19.4084 4.4526 19.6868 4.74223C19.9651 5.03187 20.1215 5.4247 20.1215 5.83431V16.1306Z" fill="#282828" stroke="#282828" stroke-width="0.5"/>
</g>
<defs>
<clipPath id="clip0_123_743">
<rect width="21.1111" height="21.9653" fill="white"/>
</clipPath>
</defs>
</svg>
