<svg width="44" height="44" viewBox="0 0 44 44" fill="none" xmlns="http://www.w3.org/2000/svg">
<path fill-rule="evenodd" clip-rule="evenodd" d="M21.7149 36.8681C14.9466 36.8681 9.16663 35.8148 9.16663 31.5967C9.16663 27.3787 14.91 23.4847 21.7149 23.4847C28.4834 23.4847 34.2633 27.341 34.2633 31.5591C34.2633 35.7754 28.52 36.8681 21.7149 36.8681Z" stroke="white" stroke-width="1.5" stroke-linecap="round" stroke-linejoin="round"/>
<path fill-rule="evenodd" clip-rule="evenodd" d="M21.7015 20.4847C26.1433 20.4847 29.7432 16.8848 29.7432 12.4432C29.7432 8.00149 26.1433 4.39981 21.7015 4.39981C17.2599 4.39981 13.6583 8.00149 13.6583 12.4432C13.6433 16.8698 17.2183 20.4699 21.6448 20.4847C21.6648 20.4847 21.6832 20.4847 21.7015 20.4847Z" stroke="white" stroke-width="1.5" stroke-linecap="round" stroke-linejoin="round"/>
</svg>
