<svg width="21" height="22" viewBox="0 0 21 22" fill="none" xmlns="http://www.w3.org/2000/svg">
<path d="M20.9748 10.9572C20.9707 12.8148 20.5831 14.4537 19.7997 15.9766C19.0616 17.4138 18.0432 18.6108 16.7608 19.5546C15.6352 20.3826 14.4023 20.9489 13.054 21.2406C11.5614 21.5624 10.0688 21.528 8.58852 21.1591C7.8051 20.9617 7.05467 20.6614 6.34959 20.2625C6.23001 20.1938 6.12693 20.1895 5.99911 20.2324C4.44464 20.7515 2.89017 21.2663 1.3357 21.7812C1.1584 21.8412 0.985221 21.897 0.807921 21.9656C0.684223 22.0128 0.675976 21.9656 0.708962 21.8584C0.890386 21.305 1.06769 20.7515 1.24911 20.1938C1.6367 18.9883 2.02428 17.7828 2.42012 16.5816C2.47372 16.4228 2.39538 16.3199 2.33353 16.2083C1.84698 15.3288 1.50063 14.3936 1.28622 13.4069C0.820291 11.279 0.985221 9.194 1.76864 7.17336C2.2222 6.00645 2.86955 4.95967 3.69833 4.03301C4.75388 2.84894 6.00323 1.97805 7.44638 1.39459C8.79468 0.849752 10.1883 0.639537 11.6232 0.729629C13.59 0.854042 15.3795 1.53188 16.9505 2.76743C18.9833 4.36334 20.2615 6.4612 20.7728 9.0653C20.9088 9.73026 20.9583 10.4038 20.9748 10.9572ZM10.9347 2.46712C10.5512 2.44996 10.1018 2.49715 9.65232 2.56579C9.47502 2.59153 9.30185 2.63014 9.12867 2.67733C6.44855 3.3852 4.52298 5.04976 3.38908 7.67101C2.73349 9.18542 2.55619 10.7856 2.80358 12.4244C2.99737 13.7201 3.45918 14.9127 4.18075 15.9895C4.25909 16.1096 4.27146 16.2126 4.22611 16.3456C3.92099 17.2765 3.62411 18.2118 3.32311 19.147C3.30662 19.1985 3.25714 19.2586 3.3025 19.3058C3.34785 19.3572 3.40558 19.3015 3.45506 19.2843C4.35805 18.984 5.26105 18.688 6.1558 18.3748C6.36196 18.3019 6.5104 18.3362 6.6877 18.4477C8.71222 19.7133 10.8769 20.048 13.1571 19.4173C14.8889 18.9411 16.3155 17.9587 17.4453 16.5086C18.538 15.1058 19.1482 13.5013 19.2719 11.708C19.3667 10.3309 19.1606 8.99236 18.6328 7.71391C17.9689 6.10513 16.934 4.8181 15.5362 3.8614C14.1673 2.92616 12.6541 2.44567 10.9347 2.46712Z" fill="#282828"/>
<path d="M6.01141 8.59337C6.02791 7.62809 6.39075 6.83442 7.09996 6.21665C7.302 6.04075 7.54527 5.96782 7.81328 6.01501C7.92873 6.03217 8.04831 6.04933 8.15963 6.03646C8.44002 6.01501 8.60082 6.17804 8.68741 6.41828C8.9513 7.13902 9.20694 7.86405 9.46671 8.58478C9.51619 8.72207 9.50382 8.84648 9.44197 8.97518C9.28116 9.32268 9.02552 9.59296 8.76988 9.86323C8.54722 10.0992 8.53485 10.1764 8.68741 10.4638C9.42548 11.8538 10.4439 12.9349 11.8541 13.5913C11.9242 13.6214 11.986 13.6728 12.052 13.7029C12.2293 13.793 12.3901 13.7844 12.5385 13.6257C12.8272 13.3211 13.0952 12.995 13.3549 12.6604C13.557 12.3987 13.6518 12.3601 13.9363 12.4931C14.629 12.8277 15.2888 13.2181 15.9609 13.5956C16.1835 13.72 16.2082 13.8916 16.1753 14.2048C16.0392 15.479 15.1032 16.0581 14.0353 16.2426C13.6766 16.3027 13.3385 16.2684 13.0003 16.1568C12.0108 15.8308 11.0377 15.4532 10.1635 14.8612C9.34713 14.3078 8.64618 13.6171 8.03181 12.832C7.43394 12.0641 6.90204 11.2532 6.46085 10.3738C6.21345 9.87182 6.01141 9.09102 6.01141 8.59337Z" fill="#282828"/>
</svg>
