<svg width="51" height="35" viewBox="0 0 51 35" fill="none" xmlns="http://www.w3.org/2000/svg">
<path d="M49.6051 28.2648C47.3682 24.601 44.7504 21.2046 41.799 18.1369C41.7453 18.0672 41.7161 17.9805 41.7161 17.8911C41.7161 17.8017 41.7453 17.715 41.799 17.6453C44.3387 14.0385 46.5832 10.2165 48.5089 6.21943C48.7874 5.64746 48.9199 5.01053 48.8934 4.36991C48.8669 3.7293 48.6824 3.10655 48.3577 2.56158C48.0615 2.00769 47.6285 1.54613 47.1035 1.22461C46.5785 0.90308 45.9805 0.733248 45.3713 0.73266L39.701 0.73266C38.9814 0.747187 38.2808 0.975125 37.6815 1.38968C37.0822 1.80424 36.609 2.38819 36.3177 3.07289C34.6707 6.86282 32.6969 10.4896 30.4206 13.9088L30.4206 4.27251C30.4231 3.80692 30.3368 3.34544 30.1667 2.91479C29.9966 2.48414 29.7461 2.09287 29.4297 1.76364C29.1133 1.43442 28.7372 1.17377 28.3233 0.996803C27.9094 0.819833 27.4659 0.730052 27.0184 0.73266L18.7397 0.73266C18.2578 0.740457 17.7871 0.885067 17.3783 1.15088C16.9696 1.41669 16.6384 1.79361 16.4205 2.24095C16.2026 2.68829 16.1063 3.18905 16.142 3.68918C16.1776 4.18931 16.3439 4.66981 16.6228 5.07881L17.3789 6.18009C17.7844 6.78606 18.002 7.50661 18.0026 8.24501L18.0026 15.7967C15.5075 11.9562 13.5238 7.78192 12.1055 3.38755C11.8497 2.61319 11.3681 1.9412 10.7277 1.46528C10.0873 0.989357 9.32013 0.733245 8.53317 0.73266L3.90242 0.73266C3.41039 0.738781 2.92604 0.860362 2.48545 1.08834C2.04487 1.31632 1.65942 1.64481 1.35783 2.04934C1.05623 2.45388 0.846277 2.92401 0.743605 3.42471C0.640933 3.92542 0.648193 4.44377 0.764843 4.94115C3.31648 16.2097 8.66548 25.5509 15.451 30.5067C15.8576 30.8073 16.362 30.9284 16.8541 30.8437C17.3463 30.759 17.7863 30.4753 18.0782 30.0544C18.2242 29.8442 18.3288 29.6061 18.386 29.3537C18.4431 29.1013 18.4518 28.8396 18.4114 28.5837C18.371 28.3278 18.2823 28.0828 18.1505 27.8626C18.0187 27.6425 17.8464 27.4517 17.6435 27.3012C11.7085 22.9747 6.98329 14.7347 4.58285 4.66583L8.55207 4.66583C10.2914 10.1642 12.9115 15.3171 16.3015 19.9068C16.6933 20.4277 17.2329 20.8069 17.8437 20.9905C18.4544 21.1741 19.1053 21.1527 19.7037 20.9295C20.3177 20.7068 20.8488 20.2888 21.222 19.7347C21.5951 19.1806 21.7913 18.5184 21.7828 17.8419L21.7828 8.24501C21.7869 6.99486 21.4878 5.76384 20.9134 4.66583L26.5837 4.66583L26.5837 15.3444C26.5769 16.1085 26.812 16.8536 27.2526 17.4649C27.6933 18.0762 28.315 18.5197 29.0219 18.7269C29.7078 18.9644 30.4497 18.9601 31.133 18.7149C31.8163 18.4696 32.4029 17.9969 32.8021 17.3699C35.4868 13.3849 37.7791 9.12871 39.6443 4.66583L44.9366 4.66583C43.135 8.35134 41.0557 11.8826 38.7181 15.2264C38.1287 16.0468 37.8425 17.0605 37.9119 18.0823C37.9814 19.104 38.4017 20.0658 39.0962 20.7918C41.8529 23.6822 44.3342 26.8435 46.5054 30.2314L40.1735 30.2314C38.2202 26.8671 35.5971 23.977 32.4808 21.7554C32.0132 21.399 31.459 21.1861 30.881 21.1409C30.303 21.0957 29.7244 21.22 29.2109 21.4998C28.6829 21.7809 28.2406 22.2095 27.9335 22.7374C27.6263 23.2654 27.4666 23.8719 27.472 24.489L27.472 29.1694C27.4823 29.4427 27.3891 29.7092 27.2123 29.9115C27.0355 30.1139 26.7894 30.2358 26.527 30.2511L24.9015 30.2511C24.4002 30.2511 23.9194 30.4583 23.565 30.8271C23.2105 31.1959 23.0114 31.6961 23.0114 32.2176C23.0114 32.7392 23.2105 33.2394 23.565 33.6082C23.9194 33.977 24.4002 34.1842 24.9015 34.1842L26.527 34.1842C27.1541 34.1791 27.774 34.0452 28.3513 33.7901C28.9285 33.5351 29.4516 33.1639 29.8907 32.698C30.3297 32.2321 30.676 31.6805 30.9096 31.075C31.1433 30.4695 31.2597 29.8219 31.2522 29.1694L31.2522 25.6886C33.5259 27.468 35.4507 29.6844 36.9225 32.2176C37.2475 32.8036 37.7122 33.2924 38.2717 33.6369C38.8313 33.9814 39.4668 34.1699 40.1168 34.1842L46.5054 34.1842C47.1586 34.1859 47.8002 34.0041 48.3624 33.658C48.9246 33.3118 49.3866 32.8142 49.6996 32.2176C50.0207 31.6088 50.1811 30.9223 50.1645 30.228C50.1479 29.5337 49.9549 28.8563 49.6051 28.2648Z" fill="#FFEF9C"/>
</svg>
