<svg width="27" height="27" viewBox="0 0 27 27" fill="none" xmlns="http://www.w3.org/2000/svg">
<path d="M18.6353 2.8588V1.27057H16.7294V2.8588H10.2706V1.27057H8.36473V2.8588H0V25.7294H20.0888L27 18.8182V2.8588H18.6353ZM8.36473 4.76469V6.35292H10.2706V4.76469H16.7295V6.03527H18.6353V4.76469H25.0941V7.94116H1.90588V4.76469H8.36473ZM1.90588 9.84704H25.0941V17.4706H18.7412V23.8235H1.90588V9.84704ZM23.7465 19.3764L20.6471 22.4759V19.3764H23.7465Z" fill="#323943" fill-opacity="0.6"/>
<path d="M9.37059 18.1058H6.19412V21.2823H9.37059V18.1058Z" fill="#323943" fill-opacity="0.6"/>
<path d="M15.0882 18.1058H11.9118V21.2823H15.0882V18.1058Z" fill="#323943" fill-opacity="0.6"/>
<path d="M15.0882 12.3882H11.9118V15.5647H15.0882V12.3882Z" fill="#323943" fill-opacity="0.6"/>
<path d="M20.8059 12.3882H17.6294V15.5647H20.8059V12.3882Z" fill="#323943" fill-opacity="0.6"/>
<path d="M9.37059 12.3882H6.19412V15.5647H9.37059V12.3882Z" fill="#323943" fill-opacity="0.6"/>
</svg>
