<svg width="56" height="56" viewBox="0 0 56 56" fill="none" xmlns="http://www.w3.org/2000/svg">
<path d="M28 56C43.464 56 56 43.464 56 28C56 12.536 43.464 0 28 0C12.536 0 0 12.536 0 28C0 43.464 12.536 56 28 56Z" fill="#FFEF9C"/>
<path d="M41.5078 18.7523C41.5133 16.3734 39.5828 14.4375 37.2039 14.432C36.0555 14.432 34.9563 14.8859 34.1469 15.6953L30.2094 19.6328L21.1258 16.6086C20.6336 16.4555 20.0922 16.5813 19.7258 16.9422L16.3953 20.2453C15.8539 20.7977 15.8594 21.6836 16.4063 22.225C16.5211 22.3398 16.6524 22.4328 16.8 22.4984L24.0516 25.7906L20.4094 29.4328L18.0141 28.2297C17.4836 27.9453 16.8274 28.0273 16.3899 28.4375L13.9125 30.9695C13.3711 31.5164 13.3711 32.3969 13.9125 32.9438L22.9961 42.0273C23.543 42.5687 24.4235 42.5687 24.9703 42.0273L27.5024 39.55C27.9344 39.1234 28.0383 38.4672 27.7703 37.9258L26.5672 35.5305L30.2094 31.8883L33.5016 39.1398C33.8297 39.8398 34.661 40.1461 35.361 39.818C35.5086 39.7523 35.6399 39.6594 35.7547 39.5445L39.0578 36.2414C39.4188 35.875 39.55 35.3336 39.3914 34.8414L36.3672 25.7578L40.2446 21.7984C41.0594 20.9945 41.5133 19.8953 41.5078 18.7523ZM38.2594 19.8297L33.7258 24.3633C33.3649 24.7297 33.2336 25.2711 33.3922 25.7633L36.411 34.8359L35.1532 36.0938L31.861 28.8586C31.6696 28.443 31.2922 28.1422 30.8383 28.0602C30.3844 27.9781 29.9196 28.1258 29.5914 28.4539L23.8274 34.2781C23.4008 34.7047 23.2969 35.35 23.5594 35.8859L24.7078 38.2375L23.9258 39.0195L16.8821 31.9648L17.7078 31.2375L20.1032 32.4406C20.6391 32.7086 21.2899 32.5992 21.711 32.1727L27.5078 26.3484C28.0547 25.8016 28.0602 24.9156 27.5133 24.3688C27.393 24.2484 27.2563 24.15 27.0977 24.0789L19.8024 20.7867L21.0602 19.5289L30.1328 22.5531C30.625 22.7063 31.1664 22.5805 31.5328 22.2195L36.0664 17.6859C36.6461 17.0953 37.5922 17.0844 38.1828 17.6641L38.2047 17.6859C38.5 17.9594 38.6641 18.3477 38.6532 18.7523C38.6805 19.1516 38.5328 19.5398 38.2594 19.8297Z" fill="#3797C3"/>
</svg>
