<svg width="55" height="32" viewBox="0 0 56 33" fill="none" xmlns="http://www.w3.org/2000/svg">
<path d="M55.5 10.2999C55.6566 9.65758 55.5674 8.9799 55.25 8.39993C54.4398 6.99403 53.3599 5.76197 52.0724 4.77442C50.7848 3.78688 49.315 3.0633 47.7471 2.6452C46.1792 2.2271 44.5442 2.12272 42.9359 2.33804C41.3276 2.55336 39.7777 3.08414 38.375 3.89993L33 6.99993L20.5 1.12493C20.1446 0.940821 19.7502 0.844727 19.35 0.844727C18.9498 0.844727 18.5554 0.940821 18.2 1.12493L10.7 5.44993C10.3293 5.66373 10.0198 5.96909 9.80091 6.33678C9.58205 6.70447 9.46122 7.12218 9.45 7.54993C9.43789 7.98085 9.53742 8.40758 9.73893 8.78869C9.94043 9.16979 10.2371 9.49231 10.6 9.72493L18.85 14.9249L14.5 17.4249L2.55 18.8749C2.06961 18.9344 1.61681 19.132 1.24656 19.4437C0.876306 19.7555 0.604531 20.1681 0.464227 20.6314C0.323923 21.0946 0.321125 21.5887 0.456172 22.0535C0.59122 22.5183 0.858304 22.934 1.225 23.2499L10.075 30.8999C11.2401 32.0119 12.7323 32.7193 14.3306 32.9174C15.929 33.1155 17.5487 32.7938 18.95 31.9999L54.25 11.8249C54.5509 11.6688 54.8168 11.453 55.0317 11.1909C55.2466 10.9287 55.4059 10.6256 55.5 10.2999V10.2999ZM16.675 27.7999C16.1948 28.0642 15.641 28.1633 15.0989 28.082C14.5569 28.0006 14.0566 27.7434 13.675 27.3499L8.925 23.2749L15.75 22.4499C16.0854 22.407 16.4086 22.2964 16.7 22.1249L25.1 17.2999C25.4742 17.0839 25.7861 16.7747 26.0052 16.4022C26.2242 16.0298 26.343 15.607 26.35 15.1749C26.3551 14.7458 26.2497 14.3227 26.0439 13.9461C25.8382 13.5696 25.5389 13.2523 25.175 13.0249L16.925 7.79993L19.675 6.22493L32.175 12.0249C32.5304 12.209 32.9248 12.3051 33.325 12.3051C33.7252 12.3051 34.1196 12.209 34.475 12.0249L40.875 8.32493C42.1865 7.58993 43.6887 7.26606 45.1865 7.39534C46.6844 7.52462 48.1088 8.10108 49.275 9.04993L16.675 27.7999Z" fill="white"/>
</svg>
