<svg width="60" height="60" viewBox="0 0 60 60" fill="none" xmlns="http://www.w3.org/2000/svg">
<path d="M37.5 56.25H31.875C30.8808 56.249 29.9275 55.8535 29.2245 55.1505C28.5215 54.4475 28.126 53.4942 28.125 52.5V43.125H31.875V52.5H37.5V43.125H41.25V35.625C41.2495 35.1279 41.0517 34.6513 40.7002 34.2998C40.3487 33.9483 39.8721 33.7505 39.375 33.75H23.0237L19.2737 22.5H7.5C7.00289 22.5005 6.52629 22.6983 6.17478 23.0498C5.82327 23.4013 5.62555 23.8779 5.625 24.375V35.625H9.375V52.5H16.875V39.375H20.625V52.5C20.624 53.4942 20.2285 54.4475 19.5255 55.1505C18.8225 55.8535 17.8692 56.249 16.875 56.25H9.375C8.38076 56.249 7.42754 55.8535 6.7245 55.1505C6.02147 54.4475 5.62604 53.4942 5.625 52.5V39.375C4.63076 39.374 3.67754 38.9785 2.9745 38.2755C2.27147 37.5725 1.87604 36.6192 1.875 35.625V24.375C1.87664 22.8837 2.4698 21.4539 3.52433 20.3993C4.57887 19.3448 6.00866 18.7516 7.5 18.75H19.2737C20.0609 18.7494 20.8283 18.9967 21.4669 19.457C22.1056 19.9172 22.583 20.5669 22.8315 21.3139L25.7263 30H39.375C40.8663 30.0016 42.2961 30.5948 43.3507 31.6493C44.4052 32.7039 44.9984 34.1337 45 35.625V43.125C44.999 44.1192 44.6035 45.0725 43.9005 45.7755C43.1975 46.4785 42.2442 46.874 41.25 46.875V52.5C41.249 53.4942 40.8535 54.4475 40.1505 55.1505C39.4475 55.8535 38.4942 56.249 37.5 56.25Z" fill="white"/>
<path d="M52.5 56.25H48.75V35.625H54.375V24.375C54.3745 23.8779 54.1767 23.4013 53.8252 23.0498C53.4737 22.6983 52.9971 22.5005 52.5 22.5H45V18.75H52.5C53.9913 18.7516 55.4211 19.3448 56.4757 20.3993C57.5302 21.4539 58.1234 22.8837 58.125 24.375V35.625C58.124 36.6192 57.7285 37.5725 57.0255 38.2755C56.3225 38.9785 55.3692 39.374 54.375 39.375H52.5V56.25Z" fill="white"/>
<path d="M13.125 16.875C11.6416 16.875 10.1916 16.4351 8.95823 15.611C7.72486 14.7869 6.76356 13.6156 6.19591 12.2451C5.62825 10.8747 5.47972 9.36668 5.76911 7.91183C6.0585 6.45697 6.77281 5.1206 7.8217 4.0717C8.8706 3.02281 10.207 2.3085 11.6618 2.01911C13.1167 1.72972 14.6247 1.87825 15.9951 2.44591C17.3656 3.01356 18.5369 3.97486 19.361 5.20823C20.1851 6.4416 20.625 7.89164 20.625 9.375C20.6228 11.3634 19.8319 13.2698 18.4258 14.6758C17.0198 16.0819 15.1134 16.8728 13.125 16.875ZM13.125 5.625C12.3833 5.625 11.6583 5.84494 11.0416 6.25699C10.4249 6.66905 9.94428 7.25472 9.66045 7.93994C9.37663 8.62516 9.30236 9.37916 9.44706 10.1066C9.59175 10.834 9.94891 11.5022 10.4734 12.0267C10.9978 12.5511 11.666 12.9083 12.3934 13.0529C13.1208 13.1976 13.8748 13.1234 14.5601 12.8396C15.2453 12.5557 15.831 12.0751 16.243 11.4584C16.6551 10.8417 16.875 10.1167 16.875 9.375C16.874 8.38076 16.4785 7.42754 15.7755 6.7245C15.0725 6.02147 14.1192 5.62605 13.125 5.625Z" fill="white"/>
<path d="M46.875 16.875C45.3916 16.875 43.9416 16.4351 42.7082 15.611C41.4749 14.7869 40.5136 13.6156 39.9459 12.2451C39.3782 10.8747 39.2297 9.36668 39.5191 7.91183C39.8085 6.45697 40.5228 5.1206 41.5717 4.0717C42.6206 3.02281 43.957 2.3085 45.4118 2.01911C46.8667 1.72972 48.3747 1.87825 49.7451 2.44591C51.1156 3.01356 52.2869 3.97486 53.111 5.20823C53.9351 6.4416 54.375 7.89164 54.375 9.375C54.3728 11.3634 53.5819 13.2698 52.1758 14.6758C50.7698 16.0819 48.8634 16.8728 46.875 16.875ZM46.875 5.625C46.1333 5.625 45.4083 5.84494 44.7916 6.25699C44.1749 6.66905 43.6943 7.25472 43.4105 7.93994C43.1266 8.62516 43.0524 9.37916 43.1971 10.1066C43.3418 10.834 43.6989 11.5022 44.2234 12.0267C44.7478 12.5511 45.416 12.9083 46.1434 13.0529C46.8708 13.1976 47.6248 13.1234 48.3101 12.8396C48.9953 12.5557 49.581 12.0751 49.993 11.4584C50.4051 10.8417 50.625 10.1167 50.625 9.375C50.624 8.38076 50.2285 7.42754 49.5255 6.7245C48.8225 6.02147 47.8692 5.62605 46.875 5.625Z" fill="white"/>
<path d="M34.6875 28.125C33.3896 28.125 32.1208 27.7401 31.0416 27.019C29.9624 26.2979 29.1212 25.273 28.6245 24.0739C28.1278 22.8747 27.9979 21.5552 28.2511 20.2822C28.5043 19.0092 29.1293 17.8399 30.0471 16.9221C30.9649 16.0043 32.1342 15.3793 33.4072 15.1261C34.6802 14.8729 35.9997 15.0028 37.1989 15.4995C38.398 15.9962 39.4229 16.8374 40.144 17.9166C40.8651 18.9958 41.25 20.2646 41.25 21.5625C41.248 23.3024 40.5559 24.9704 39.3256 26.2006C38.0954 27.4309 36.4274 28.123 34.6875 28.125ZM34.6875 18.75C34.1312 18.75 33.5875 18.915 33.125 19.224C32.6624 19.533 32.302 19.9723 32.0891 20.4862C31.8762 21.0001 31.8205 21.5656 31.929 22.1112C32.0376 22.6568 32.3054 23.1579 32.6988 23.5512C33.0921 23.9446 33.5932 24.2124 34.1388 24.321C34.6844 24.4295 35.2499 24.3738 35.7638 24.1609C36.2777 23.948 36.717 23.5876 37.026 23.125C37.3351 22.6625 37.5 22.1188 37.5 21.5625C37.4992 20.8168 37.2026 20.102 36.6753 19.5747C36.148 19.0474 35.4332 18.7508 34.6875 18.75Z" fill="white"/>
</svg>
