<svg width="60" height="60" viewBox="0 0 60 60" fill="none" xmlns="http://www.w3.org/2000/svg">
<g clip-path="url(#clip0_78_556)">
<path d="M59.0062 32.0814C57.1142 30.8235 54.8298 30.2955 52.5777 30.5956C50.3257 30.8956 48.2592 32.0033 46.7625 33.7126L40.7625 40.5564C40.2375 39.1163 39.284 37.8717 38.0302 36.9901C36.7765 36.1084 35.2827 35.6321 33.75 35.6251H32.0062C31.0647 35.6236 30.1447 35.3431 29.3625 34.8189C25.9826 32.5708 21.9292 31.5611 17.8898 31.9609C13.8503 32.3608 10.0735 34.1456 7.19998 37.0126L0.543731 43.6689C0.190662 44.0219 -0.00769043 44.5008 -0.00769043 45.0001C-0.00769043 45.4994 0.190662 45.9783 0.543731 46.3314C0.896801 46.6844 1.37567 46.8828 1.87498 46.8828C2.3743 46.8828 2.85316 46.6844 3.20623 46.3314L9.86248 39.6751C12.1167 37.4145 15.0859 36.0067 18.2628 35.6921C21.4398 35.3775 24.6274 36.1756 27.2812 37.9501C28.68 38.8833 30.3247 39.3794 32.0062 39.3751H33.75C34.7445 39.3751 35.6984 39.7702 36.4016 40.4735C37.1049 41.1767 37.5 42.1306 37.5 43.1251H24.375C23.8777 43.1251 23.4008 43.3227 23.0492 43.6743C22.6975 44.0259 22.5 44.5028 22.5 45.0001C22.5 45.4974 22.6975 45.9743 23.0492 46.326C23.4008 46.6776 23.8777 46.8751 24.375 46.8751H39.375C39.6395 46.8698 39.8998 46.8086 40.139 46.6955C40.3781 46.5824 40.5906 46.4199 40.7625 46.2189L49.5562 36.1689C50.2432 35.3901 51.1324 34.8168 52.1252 34.5123C53.118 34.2078 54.1758 34.1842 55.1812 34.4439L42 52.1251C41.476 52.8237 40.7966 53.3907 40.0156 53.7813C39.2345 54.1718 38.3732 54.3751 37.5 54.3751H21.3937C20.3074 54.3733 19.2314 54.586 18.2275 55.0011C17.2236 55.4162 16.3116 56.0254 15.5437 56.7939C15.368 56.9682 15.2285 57.1756 15.1333 57.404C15.0381 57.6325 14.9891 57.8776 14.9891 58.1251C14.9891 58.3726 15.0381 58.6177 15.1333 58.8462C15.2285 59.0747 15.368 59.2821 15.5437 59.4564C15.718 59.6321 15.9254 59.7716 16.1539 59.8668C16.3824 59.962 16.6275 60.011 16.875 60.011C17.1225 60.011 17.3676 59.962 17.5961 59.8668C17.8245 59.7716 18.0319 59.6321 18.2062 59.4564C18.6218 59.0329 19.1179 58.697 19.6653 58.4684C20.2128 58.2397 20.8005 58.123 21.3937 58.1251H37.5C38.9554 58.1251 40.3908 57.7863 41.6926 57.1354C42.9944 56.4845 44.1267 55.5395 45 54.3751L59.625 34.8751C59.9071 34.4295 60.0077 33.8927 59.9062 33.3751C59.7785 32.8465 59.4574 32.3849 59.0062 32.0814Z" fill="white"/>
<path d="M37.5 30C40.4667 30 43.3668 29.1203 45.8336 27.4721C48.3003 25.8238 50.2229 23.4811 51.3582 20.7403C52.4935 17.9994 52.7906 14.9834 52.2118 12.0737C51.633 9.16394 50.2044 6.49119 48.1066 4.3934C46.0088 2.29562 43.3361 0.867006 40.4264 0.288228C37.5166 -0.290551 34.5006 0.00649922 31.7597 1.14181C29.0189 2.27713 26.6762 4.19972 25.028 6.66645C23.3797 9.13319 22.5 12.0333 22.5 15C22.5 18.9783 24.0804 22.7936 26.8934 25.6066C29.7064 28.4197 33.5218 30 37.5 30ZM37.5 3.75001C39.725 3.75001 41.9001 4.40981 43.7502 5.64597C45.6002 6.88214 47.0422 8.63915 47.8936 10.6948C48.7451 12.7505 48.9679 15.0125 48.5338 17.1948C48.0998 19.3771 47.0283 21.3816 45.455 22.955C43.8816 24.5283 41.8771 25.5998 39.6948 26.0338C37.5125 26.4679 35.2505 26.2451 33.1948 25.3937C31.1391 24.5422 29.3821 23.1002 28.146 21.2502C26.9098 19.4001 26.25 17.225 26.25 15C26.25 12.0163 27.4353 9.15484 29.545 7.04506C31.6548 4.93527 34.5163 3.75001 37.5 3.75001Z" fill="white"/>
<path d="M36.1687 21.6375C36.343 21.8132 36.5504 21.9527 36.7789 22.0479C37.0074 22.1431 37.2525 22.1921 37.5 22.1921C37.7475 22.1921 37.9926 22.1431 38.2211 22.0479C38.4496 21.9527 38.6569 21.8132 38.8312 21.6375L44.1375 16.3312C44.3132 16.1569 44.4527 15.9495 44.5479 15.7211C44.6431 15.4926 44.6921 15.2475 44.6921 15C44.6921 14.7525 44.6431 14.5074 44.5479 14.2789C44.4527 14.0504 44.3132 13.843 44.1375 13.6687L38.8312 8.36248C38.6569 8.18674 38.4496 8.04725 38.2211 7.95206C37.9926 7.85687 37.7475 7.80786 37.5 7.80786C37.2525 7.80786 37.0074 7.85687 36.7789 7.95206C36.5504 8.04725 36.343 8.18674 36.1687 8.36248L30.8625 13.6687C30.6867 13.843 30.5473 14.0504 30.4521 14.2789C30.3569 14.5074 30.3079 14.7525 30.3079 15C30.3079 15.2475 30.3569 15.4926 30.4521 15.7211C30.5473 15.9495 30.6867 16.1569 30.8625 16.3312L36.1687 21.6375ZM37.5 12.3562L40.1437 15L37.5 17.6437L34.8562 15L37.5 12.3562Z" fill="white"/>
<path d="M9.375 9.375H11.25V11.25C11.25 11.7473 11.4475 12.2242 11.7992 12.5758C12.1508 12.9275 12.6277 13.125 13.125 13.125C13.6223 13.125 14.0992 12.9275 14.4508 12.5758C14.8025 12.2242 15 11.7473 15 11.25V9.375H16.875C17.3723 9.375 17.8492 9.17746 18.2008 8.82582C18.5525 8.47419 18.75 7.99728 18.75 7.5C18.75 7.00272 18.5525 6.52581 18.2008 6.17417C17.8492 5.82254 17.3723 5.625 16.875 5.625H15V3.75C15 3.25272 14.8025 2.77581 14.4508 2.42417C14.0992 2.07254 13.6223 1.875 13.125 1.875C12.6277 1.875 12.1508 2.07254 11.7992 2.42417C11.4475 2.77581 11.25 3.25272 11.25 3.75V5.625H9.375C8.87772 5.625 8.40081 5.82254 8.04918 6.17417C7.69754 6.52581 7.5 7.00272 7.5 7.5C7.5 7.99728 7.69754 8.47419 8.04918 8.82582C8.40081 9.17746 8.87772 9.375 9.375 9.375Z" fill="white"/>
</g>
<defs>
<clipPath id="clip0_78_556">
<rect width="60" height="60" fill="white"/>
</clipPath>
</defs>
</svg>
